<svg id="Layer_1" data-name="Layer 1" xmlns="http://www.w3.org/2000/svg" viewBox="0 0 170.75 93.25"><defs><style>.cls-1{fill:#2e2d47}.cls-1,.cls-2,.cls-3{stroke:#b7b7dc;stroke-width:.11px}.cls-1,.cls-2,.cls-3,.cls-5,.cls-6{stroke-linecap:round;stroke-miterlimit:10}.cls-2,.cls-5,.cls-6{fill:none}.cls-3{fill:#1b2334}.cls-4{fill:#e7d7b6}.cls-5,.cls-6{stroke:#e7d7b6}.cls-5{stroke-width:.91px}.cls-6{stroke-width:.61px}</style></defs><title>thelonelinessproject</title><ellipse class="cls-1" cx="93.32" cy="27.54" rx=".88" ry=".65" transform="rotate(-77.53 93.325 27.544)"/><ellipse class="cls-1" cx="93.98" cy="26.89" rx=".88" ry=".65" transform="rotate(-77.53 93.975 26.888)"/><path class="cls-2" d="M15.07 22.71a14.55 14.55 0 0 0 12.85 5.8c7.25-.7 11.87-4.51 12.9-8.51 1-3.83-1.7-5.68-3.77-5.41s-3.74 3.14-4.48 7.41c-1 5.76-4 39.95-15.21 41.85-2 .3-6.09.35-7.13-3.46-.59-2.16 1-6.19 6.3-7.49C24.28 51 33 63.54 41.26 62.29c7-1.05 8.86-5.44 8.86-5.44m40.57-16.98s-3 7.18-6.07 7.67c-1.17.18-3.64-.63-2-7 0 0 6-18.72 6.67-24.48.07-.65.79-3.8-1-3.52-1.58.25-2.05 2.91-2.37 4.43 0 0-2.49 14.08-3.18 22.82M48.87 40a5 5 0 0 1 2.72-1.9c1.17-.18 3.64.64 2 7l-1.93 7.52"/><path class="cls-2" d="M53.46 45.61s1.78-8.07 6.63-8.83c1.15-.18 3.37.64 1.89 6.75l-.28 1.13c-1.15 5.48.94 6.24 2 6.06 4.85-.75 6.63-8.83 6.63-8.83M99 38.55s-3 7.18-6.07 7.67c-1.17.18-3.64-.63-2-7l1.88-7.6m12.7 12.61l1.91-7.52c1.59-6.35-.88-7.16-2-7a4.32 4.32 0 0 0-2.71 1.91A37.52 37.52 0 0 0 99 38.55"/><path class="cls-2" d="M107.26 37.23s1.76-8.08 6.61-8.85c1.15-.18 3.37.63 1.91 6.75l-.28 1.13c-1.14 5.49 1 6.23 2.07 6.06 4.85-.77 6.61-8.85 6.61-8.85m-82.49 6.09c3.54-.55 4.61 4.54 3.57 8.6-.89 3.49-2.91 5.9-5.06 6.23-3.24.5-4.61-4.54-3.57-8.6a12 12 0 0 1 1.3-3.19m45.48-5.21c-1.63 7.52-7 11.38-9.2 11.71-3.24.5-4.61-4.54-3.57-8.6.87-3.39 2.93-5.9 5.06-6.24 1.81-.28 2.76.55 2.88 1.32.21 1.38-.43 5.19-8.2 6.4"/><path class="cls-2" d="M124.11 33.63c7.78-1.21 8.42-5 8.2-6.4-.12-.77-1.07-1.6-2.88-1.32-2.13.33-4.19 2.85-5.06 6.24-1 4.06.33 9.1 3.57 8.6 5.62-.87 9.43-8.79 11.06-16.32M43.88 40.1a2.49 2.49 0 0 0-1.88-.59c-3.29.51-2.48 7.42 1.87 6.87 2.32-.29 3.07-3.83 5-6.38"/><path class="cls-2" d="M139 24.43c1 6.57 5.23 7.72 4.61 10.89a4.66 4.66 0 0 1-4.22 3.68c-1 .16-2.92-.66-2.66-2.39m2.5 2.39c5.62-.87 9.43-8.79 11.06-16.32"/><path class="cls-2" d="M148 34.82c-.26 1.72 1.62 2.55 2.66 2.39a4.66 4.66 0 0 0 4.22-3.64c.62-3.17-3.59-4.32-4.61-10.89"/><path class="cls-2" d="M67 81.13A8.34 8.34 0 0 1 60.17 84c-4.7-.09-8.06-4.3-8-9.94.17-8.53 10.8-18.66 38-17.58 36.44 1.45 68-1.16 71-17.57a4.57 4.57 0 0 0-4-5.23c-1.14 0-2.31.94-3.49 2M14.41 23.37a14.55 14.55 0 0 0 12.85 5.8c7.25-.7 11.87-4.51 12.9-8.51 1-3.83-1.7-5.68-3.77-5.41s-3.75 3.13-4.49 7.44c-1 5.76-4 39.95-15.21 41.85-2 .3-6.09.35-7.13-3.46-.59-2.16 1-6.19 6.3-7.49C23.63 51.7 32.34 64.2 40.61 63c7-1.05 8.86-5.44 8.86-5.44M90 40.53s-3 7.18-6.07 7.67c-1.17.18-3.64-.63-2-7 0 0 6-18.72 6.67-24.48.07-.65.79-3.8-1-3.52-1.58.25-2.05 2.91-2.37 4.43 0 0-2.49 14.08-3.18 22.82m-33.84.22a5 5 0 0 1 2.72-1.9c1.17-.18 3.64.64 2 7L51 53.26"/><path class="cls-2" d="M52.8 46.27s1.78-8.07 6.63-8.83c1.15-.18 3.37.64 1.89 6.75L61 45.32c-1.15 5.48.94 6.24 2 6.06 4.85-.75 6.63-8.83 6.63-8.83m28.72-3.34s-3 7.18-6.07 7.67c-1.17.18-3.64-.63-2-7l1.88-7.6m12.69 12.61l1.91-7.52c1.59-6.35-.88-7.16-2-7A4.32 4.32 0 0 0 102 32.3a37.52 37.52 0 0 0-3.65 6.91"/><path class="cls-2" d="M106.6 37.89s1.76-8.08 6.61-8.85c1.15-.18 3.37.63 1.91 6.75l-.28 1.13c-1.14 5.49 1 6.23 2.07 6.06 4.85-.77 6.61-8.85 6.61-8.85M41 40.22c3.54-.55 4.61 4.54 3.57 8.6-.89 3.49-2.91 5.9-5.06 6.23-3.24.5-4.61-4.54-3.57-8.6a12 12 0 0 1 1.3-3.19m45.51-5.21c-1.63 7.52-7 11.38-9.2 11.71-3.24.5-4.61-4.54-3.57-8.6.87-3.39 2.93-5.9 5.06-6.24 1.81-.28 2.76.55 2.88 1.32.21 1.38-.43 5.19-8.2 6.4"/><path class="cls-2" d="M123.45 34.29c7.78-1.21 8.42-5 8.2-6.4-.12-.77-1.07-1.6-2.88-1.32-2.13.33-4.19 2.85-5.06 6.24-1 4.06.33 9.1 3.57 8.6 5.62-.87 9.43-8.79 11.06-16.32M43.23 40.76a2.49 2.49 0 0 0-1.89-.59c-3.34.51-2.48 7.42 1.86 6.83 2.32-.29 3.07-3.83 5-6.38m90.15-15.53c1 6.57 5.23 7.72 4.61 10.89a4.66 4.66 0 0 1-4.22 3.64c-1 .16-2.92-.66-2.66-2.39m2.49 2.42c5.62-.87 9.43-8.79 11.06-16.32"/><path class="cls-2" d="M147.37 35.47C147.11 37.2 149 38 150 37.86a4.66 4.66 0 0 0 4.22-3.64c.62-3.17-3.59-4.32-4.61-10.89"/><path class="cls-3" d="M138.08 26.29s.45-2.85 1.49-3c.49-.08.67.51 0 .62-.98.09-1.49 2.38-1.49 2.38zm11.29-1.76s.45-2.85 1.49-3c.49-.08.67.51 0 .62-.98.14-1.49 2.38-1.49 2.38z"/><path class="cls-2" d="M66.37 81.79a8.34 8.34 0 0 1-6.86 2.92c-4.7-.09-8.06-4.3-8-9.94.17-8.53 10.8-18.66 38-17.58 36.44 1.45 68-1.16 71-17.57a4.57 4.57 0 0 0-4-5.23c-1.14 0-2.31.94-3.49 2"/><path class="cls-4" d="M55.78 17.3a.23.23 0 0 0-.23-.23h-1.08a.23.23 0 0 1-.23-.23v-.57a.23.23 0 0 1 .23-.23h3.74a.23.23 0 0 1 .23.23v.57a.23.23 0 0 1-.23.23h-1.08a.23.23 0 0 0-.23.23v6.14a.23.23 0 0 1-.23.23H56a.23.23 0 0 1-.23-.23zm8.17 4.23a.23.23 0 0 0-.23-.23h-1.51a.23.23 0 0 0-.23.23v1.91a.23.23 0 0 1-.23.23h-.65a.23.23 0 0 1-.23-.23v-7.16a.23.23 0 0 1 .23-.23h.67a.23.23 0 0 1 .23.23v3.78a.23.23 0 0 0 .23.23h1.51a.23.23 0 0 0 .23-.23v-3.78a.23.23 0 0 1 .23-.23h.67a.23.23 0 0 1 .23.23v7.16a.23.23 0 0 1-.23.23h-.67a.23.23 0 0 1-.23-.23zm3.88-5.25a.23.23 0 0 1 .23-.23h3.29a.23.23 0 0 1 .23.23v.63a.23.23 0 0 1-.23.23h-2.18a.23.23 0 0 0-.23.23v1.73a.23.23 0 0 0 .23.23h1.65a.23.23 0 0 1 .23.23v.57a.23.23 0 0 1-.23.23h-1.65a.23.23 0 0 0-.23.23v1.79a.23.23 0 0 0 .23.23h2.18a.23.23 0 0 1 .23.23v.63a.23.23 0 0 1-.23.23h-3.29a.23.23 0 0 1-.23-.23zm1.32 49.77a.23.23 0 0 1 .23-.23h1.48a4.13 4.13 0 0 1 .84.08 2.24 2.24 0 0 1 .82.45 1.82 1.82 0 0 1 .57.73 2.42 2.42 0 0 1 .23 1.09 2.35 2.35 0 0 1-.58 1.54 2.15 2.15 0 0 1-1.73.75h-.73v2.75a.23.23 0 0 1-.23.23h-.67a.23.23 0 0 1-.23-.23zm1.12 3.11a.23.23 0 0 0 .23.23h.5a1.16 1.16 0 0 0 .94-.4 1.32 1.32 0 0 0 .3-.84 1.57 1.57 0 0 0-.11-.61.81.81 0 0 0-.21-.28 1.35 1.35 0 0 0-1-.34h-.43a.23.23 0 0 0-.23.23zm5.59-3.11a.23.23 0 0 1 .23-.23h1.69a2.22 2.22 0 0 1 1.5.5A2.05 2.05 0 0 1 80 68a2.12 2.12 0 0 1-1.42 2.11l1.54 3.05a.23.23 0 0 1-.2.33h-.82a.23.23 0 0 1-.2-.13l-1.46-3.12H77v3a.23.23 0 0 1-.23.23h-.67a.23.23 0 0 1-.23-.23zM77 68.94a.23.23 0 0 0 .23.23h.5A1.17 1.17 0 0 0 79 68a1 1 0 0 0-.37-.86 1.26 1.26 0 0 0-.82-.24h-.61a.23.23 0 0 0-.23.23zm5.82.69a13.58 13.58 0 0 1 .07-1.78 2.21 2.21 0 0 1 .24-.73 2.56 2.56 0 0 1 .83-.94 2.35 2.35 0 0 1 1.41-.43 2.39 2.39 0 0 1 1.42.43 2.51 2.51 0 0 1 .81.94 1.83 1.83 0 0 1 .25.73 24.71 24.71 0 0 1 0 3.54 1.83 1.83 0 0 1-.25.74 2.49 2.49 0 0 1-2.23 1.37 2.4 2.4 0 0 1-1.37-.44 2.49 2.49 0 0 1-.83-.93l-.17-.32a2.25 2.25 0 0 1-.1-.41 13.55 13.55 0 0 1-.08-1.77zm1.08 0a9.46 9.46 0 0 0 .1 1.53 1.3 1.3 0 0 0 .28.64 1.28 1.28 0 0 0 .45.38 1.21 1.21 0 0 0 .66.17 1.27 1.27 0 0 0 .67-.17 1.22 1.22 0 0 0 .43-.38 1.38 1.38 0 0 0 .29-.64 10.11 10.11 0 0 0 .07-1.52 10.34 10.34 0 0 0-.07-1.53 1.37 1.37 0 0 0-.29-.63 1.32 1.32 0 0 0-.43-.39 1.5 1.5 0 0 0-.67-.16 1.43 1.43 0 0 0-.66.16 1.39 1.39 0 0 0-.45.39 1.29 1.29 0 0 0-.28.63 9.68 9.68 0 0 0-.1 1.52zM90.19 72a.22.22 0 0 1 .28 0 1.26 1.26 0 0 0 .29.22 1 1 0 0 0 .58.16 1.27 1.27 0 0 0 .85-.32 1.08 1.08 0 0 0 .31-.43 1.56 1.56 0 0 0 .12-.64v-4.94a.23.23 0 0 1 .23-.23h.67a.23.23 0 0 1 .23.23v5a2.3 2.3 0 0 1-.75 1.8 2.38 2.38 0 0 1-1.63.65 2.3 2.3 0 0 1-1.81-.8.23.23 0 0 1 0-.32zm6.87-6.17h3.29a.23.23 0 0 1 .23.23v.63a.23.23 0 0 1-.23.23h-2.18a.23.23 0 0 0-.23.23v1.73a.23.23 0 0 0 .23.23h1.65a.23.23 0 0 1 .23.23v.57a.23.23 0 0 1-.23.23h-1.65a.23.23 0 0 0-.23.23v1.79a.23.23 0 0 0 .23.23h2.18a.23.23 0 0 1 .23.23v.63a.23.23 0 0 1-.23.23h-3.29a.23.23 0 0 1-.23-.23v-7.2a.23.23 0 0 1 .23-.22zm11 5.48a.22.22 0 0 1 .21.28 2.75 2.75 0 0 1-.81 1.34 2.38 2.38 0 0 1-1.58.56 2.32 2.32 0 0 1-1.38-.44 2.47 2.47 0 0 1-.82-.93l-.14-.33a2.29 2.29 0 0 1-.1-.41 21.83 21.83 0 0 1 0-3.54 2.23 2.23 0 0 1 .24-.73 2.55 2.55 0 0 1 .82-.94 2.43 2.43 0 0 1 3 .22 2.89 2.89 0 0 1 .75 1.32.22.22 0 0 1-.21.28h-.71a.22.22 0 0 1-.2-.15 1.69 1.69 0 0 0-.42-.64 1.32 1.32 0 0 0-.87-.32 1.33 1.33 0 0 0-1.09.55 1.31 1.31 0 0 0-.27.63 9.85 9.85 0 0 0-.08 1.53 9.64 9.64 0 0 0 .08 1.52 1.32 1.32 0 0 0 .27.64 1.27 1.27 0 0 0 .44.38 1.17 1.17 0 0 0 .65.17 1.39 1.39 0 0 0 1.28-.91.22.22 0 0 1 .19-.13zm3.94-4.46h-1a.23.23 0 0 1-.23-.23v-.57a.23.23 0 0 1 .23-.23h3.74a.23.23 0 0 1 .23.23v.57a.23.23 0 0 1-.23.23h-1.09a.23.23 0 0 0-.23.23v6.14a.23.23 0 0 1-.23.23h-.67a.23.23 0 0 1-.23-.23v-6.14a.23.23 0 0 0-.29-.23z"/><path class="cls-2" d="M15.73 22a14.55 14.55 0 0 0 12.85 5.8c7.25-.7 11.87-4.51 12.9-8.51 1-3.83-1.7-5.68-3.77-5.41s-3.71 3.19-4.48 7.49c-1 5.76-4 39.95-15.21 41.85-2 .3-6.09.35-7.13-3.46-.59-2.16 1-6.19 6.3-7.49 7.76-1.89 16.47 10.61 24.74 9.37 7-1.05 8.86-5.44 8.86-5.44m40.56-16.99s-3 7.18-6.07 7.67c-1.17.18-3.64-.63-2-7 0 0 6-18.72 6.67-24.48.07-.65.79-3.8-1-3.52-1.58.25-2.05 2.91-2.37 4.43 0 0-2.49 14.08-3.18 22.82m-33.87.22a5 5 0 0 1 2.72-1.9c1.17-.18 3.64.64 2 7l-1.93 7.52"/><path class="cls-2" d="M54.12 45s1.78-8.07 6.63-8.83c1.15-.18 3.37.64 1.89 6.75L62.36 44c-1.15 5.48.94 6.24 2 6.06 4.85-.75 6.63-8.83 6.63-8.83m28.67-3.34s-3 7.18-6.07 7.67c-1.17.18-3.64-.63-2-7L93.42 31m12.75 12.57l1.91-7.57c1.59-6.35-.88-7.16-2-7a4.32 4.32 0 0 0-2.77 2 37.52 37.52 0 0 0-3.65 6.91"/><path class="cls-2" d="M107.92 36.57s1.76-8.08 6.61-8.85c1.15-.18 3.37.63 1.91 6.75l-.28 1.13c-1.14 5.49 1 6.23 2.07 6.06 4.85-.77 6.61-8.85 6.61-8.85M42.35 38.9c3.54-.55 4.61 4.54 3.57 8.6C45 51 43 53.4 40.86 53.74c-3.24.5-4.61-4.54-3.57-8.6A12 12 0 0 1 38.6 42m45.47-5.26c-1.63 7.52-7 11.38-9.2 11.71-3.24.5-4.61-4.54-3.57-8.6.87-3.39 2.93-5.9 5.06-6.24 1.81-.28 2.76.55 2.88 1.32.21 1.38-.43 5.19-8.2 6.4"/><path class="cls-2" d="M124.77 33c7.78-1.21 8.42-5 8.2-6.4-.12-.77-1.07-1.6-2.88-1.32-2.13.33-4.19 2.85-5.06 6.24-1 4.06.33 9.1 3.57 8.6 5.62-.87 9.43-8.79 11.06-16.32M44.54 39.44a2.49 2.49 0 0 0-1.89-.59c-3.29.51-2.48 7.42 1.87 6.87 2.32-.29 3.07-3.83 5-6.38m90.15-15.57c1 6.57 5.23 7.72 4.61 10.89a4.66 4.66 0 0 1-4.22 3.64c-1 .16-2.92-.66-2.66-2.39m2.49 2.42c5.62-.87 9.43-8.79 11.06-16.32m-2.27 12.15c-.26 1.72 1.62 2.55 2.66 2.39a4.66 4.66 0 0 0 4.22-3.64c.62-3.17-3.56-4.33-4.56-10.91"/><path class="cls-2" d="M67.68 80.47a8.34 8.34 0 0 1-6.86 2.92c-4.7-.09-8.06-4.3-8-9.94.17-8.53 10.8-18.66 38-17.58 36.44 1.45 68-1.16 71-17.57a4.57 4.57 0 0 0-4-5.23c-1.14 0-2.31.94-3.49 2"/><ellipse class="cls-3" cx="94.64" cy="26.23" rx=".88" ry=".65" transform="rotate(-77.53 94.636 26.23)"/><path class="cls-3" d="M138.73 25.63s.45-2.85 1.49-3c.49-.08.67.51 0 .62-.97.14-1.49 2.38-1.49 2.38z"/><path class="cls-3" d="M139.39 25s.45-2.85 1.49-3c.49-.08.67.51 0 .62-.98.11-1.49 2.38-1.49 2.38zM150 23.87s.45-2.85 1.49-3c.49-.08.67.51 0 .62-.95.14-1.49 2.38-1.49 2.38z"/><path class="cls-3" d="M150.68 23.21s.45-2.85 1.49-3c.49-.08.67.51 0 .62-.98.17-1.49 2.38-1.49 2.38z"/><path class="cls-5" d="M16.39 21.39a14.55 14.55 0 0 0 12.85 5.8c7.25-.7 11.87-4.51 12.9-8.51 1-3.83-1.7-5.68-3.77-5.41s-3.75 3.13-4.49 7.44c-1 5.76-4 39.95-15.21 41.85-2 .3-6.09.35-7.13-3.46-.59-2.16 1-6.19 6.3-7.49C25.6 49.72 34.31 62.22 42.58 61c7-1.05 8.86-5.44 8.86-5.44M92 38.55s-3 7.18-6.07 7.67c-1.17.18-3.64-.63-2-7 0 0 6-18.72 6.67-24.48.07-.65.79-3.8-1-3.52-1.58.25-2.05 2.91-2.37 4.43 0 0-2.49 14.08-3.18 22.82m-33.86.22a5 5 0 0 1 2.72-1.9c1.17-.18 3.64.64 2 7L53 51.29"/><path class="cls-5" d="M54.77 44.3s1.78-8.07 6.63-8.83c1.15-.18 3.37.64 1.89 6.75L63 43.35c-1.15 5.48.94 6.24 2 6.06 4.85-.75 6.63-8.83 6.63-8.83m28.69-3.35s-3 7.18-6.07 7.67c-1.17.18-3.64-.63-2-7l1.88-7.6m12.69 12.61l1.91-7.52c1.59-6.35-.88-7.16-2-7a4.32 4.32 0 0 0-2.73 1.93 37.52 37.52 0 0 0-3.65 6.91"/><path class="cls-5" d="M108.58 35.91s1.76-8.08 6.61-8.85c1.15-.18 3.37.63 1.91 6.75l-.28 1.13c-1.14 5.49 1 6.23 2.07 6.06 4.85-.77 6.61-8.85 6.61-8.85M43 38.25c3.54-.55 4.61 4.54 3.57 8.6-.89 3.49-2.91 5.9-5.06 6.23-3.24.5-4.61-4.54-3.57-8.6a12 12 0 0 1 1.3-3.19m45.49-5.21c-1.63 7.52-7 11.38-9.2 11.71-3.24.5-4.61-4.54-3.57-8.6.87-3.39 2.93-5.9 5.06-6.24 1.81-.28 2.76.55 2.88 1.32.21 1.38-.43 5.19-8.2 6.4"/><path class="cls-5" d="M125.43 32.31c7.78-1.21 8.42-5 8.2-6.4-.12-.77-1.07-1.6-2.88-1.32-2.13.33-4.19 2.85-5.06 6.24-1 4.06.33 9.1 3.57 8.6 5.62-.87 9.43-8.79 11.06-16.32M45.2 38.79a2.49 2.49 0 0 0-1.89-.59c-3.29.51-2.48 7.42 1.87 6.87 2.32-.29 3.07-3.83 5-6.38"/><ellipse class="cls-4" cx="94.97" cy="25.9" rx=".88" ry=".65" transform="rotate(-77.53 94.963 25.9)"/><path class="cls-5" d="M140.32 23.11c1 6.57 5.23 7.72 4.61 10.89a4.66 4.66 0 0 1-4.22 3.64c-1 .16-2.92-.66-2.66-2.39m2.5 2.42c5.62-.87 9.43-8.79 11.06-16.32m-2.27 12.15c-.26 1.72 1.66 2.5 2.66 2.39a4.66 4.66 0 0 0 4.22-3.64c.62-3.17-3.59-4.32-4.61-10.89"/><path class="cls-6" d="M140 24.31s.45-2.85 1.49-3c.49-.08.67.51 0 .62-1.02.14-1.49 2.38-1.49 2.38zm11.26-1.76s.45-2.85 1.49-3c.49-.08.67.51 0 .62-.97.14-1.49 2.38-1.49 2.38z"/><path class="cls-5" d="M68.34 79.81a8.34 8.34 0 0 1-6.86 2.92c-4.7-.09-8.06-4.3-8-9.94.17-8.53 10.8-18.66 38-17.58 36.44 1.45 68-1.16 71-17.57a4.57 4.57 0 0 0-4-5.23c-1.14 0-2.31.94-3.49 2"/></svg>