<svg
            class="about-overlay__logo"
            id="about__logo"
            width="65"
            height="81"
            xmlns="http://www.w3.org/2000/svg"
            viewBox="0 0 45.24 61.44"
				fill="#e8d8b6"
            style="visibility: inherit; opacity: 1; transform: matrix(1, 0, 0, 1, 0, 0);"
         >
            <path d="M24.9.54s.07.09.12.09c.51.09.84.35.73.89s-.56.58-1,.57c-1.29,0-2.59-.08-3.88,0A19.06,19.06,0,0,0,14.7,3.6L16.3,7.16c.36.79.21,1-.54,1.46-1.66.93-3.29,1.94-4.93,2.92-.18.11-.32.34-.5.36-.34,0-.81.1-1-.08a.64.64,0,0,1,.14-1.06c1.5-1,3-2,4.53-3a8.51,8.51,0,0,1,.77-.39l-1.38-3.1a21.06,21.06,0,0,0-11.8,17.3c.16-.31.25-.47.32-.63a27.87,27.87,0,0,1,3.59-6.15c.34-.45.75-.83,1.29-.41s.23.91-.11,1.35A24.94,24.94,0,0,0,1.6,27.5a23.43,23.43,0,0,0-.14,3.26c0,1.83,0,3.67,0,5.5l.19.14A11.68,11.68,0,0,0,3,35.19a11.94,11.94,0,0,0,2.56-6.63A19.12,19.12,0,0,1,20,12.37a18.38,18.38,0,0,1,10.83.75c.55.21,1,.47.74,1.11s-.76.47-1.25.3c-6.94-2.5-13-1-18.31,4-.28.26-.52.57-.74.82l2.87,2.86c.67-.6,1.41-1.27,2.16-1.93.4-.35.84-.47,1.22,0s.1.86-.31,1.18a12.35,12.35,0,0,0-4.77,8.82,19.22,19.22,0,0,1-2.12,6.61c-.23.45-.55.8-1.11.51s-.45-.71-.23-1.14A21.51,21.51,0,0,0,11.13,29a12.75,12.75,0,0,1,2-5.32l-2.93-2.92a4.1,4.1,0,0,0-.33.41A19.26,19.26,0,0,0,7,29.3c-.4,2.91-1.33,5.65-3.64,7.68a3.08,3.08,0,0,1-1,.68c-.78.24-.94.73-.86,1.46.11,1,.16,2,.25,3a8.55,8.55,0,0,0,3.88-1.73c.94-.71,1.11-.68,1.72.32.79,1.28,1.58,2.55,2.46,4,.89-.89,1.77-1.71,2.58-2.59a26.3,26.3,0,0,0,4.24-6.2,1.27,1.27,0,0,0,0-1.23,8.6,8.6,0,0,1,7.08-12.24,8.36,8.36,0,0,1,6,1.72c.42.32.79.69.37,1.22s-.83.27-1.27,0a7.12,7.12,0,0,0-11.38,4.55,6.46,6.46,0,0,0,.76,4.5,1.54,1.54,0,0,1,.08,1.54,28.17,28.17,0,0,1-8.06,10.31c-.56.45-.93.37-1.32-.26L6.29,42l-4.36,1.9c.63,1.54,1.31,3.14,1.94,4.77a1.57,1.57,0,0,1,0,1c0,.14-.47.27-.66.21a1.12,1.12,0,0,1-.6-.52A21.87,21.87,0,0,1,.16,41.67c0-.28-.11-.55-.16-.83V21.08l.3-1.5c1.79-9.14,7.14-15.17,16-18.09a41.82,41.82,0,0,1,4.28-1Z"></path>
            <path d="M42.88,45.13c.3-1.52.55-2.76.78-4a.59.59,0,0,0-.08-.37c-1.38-2.39-1.54-5.06-1.76-7.71-.16-1.88-.32-3.76-.4-5.64,0-.3.37-.63.58-.94.29.23.78.42.84.71a21.29,21.29,0,0,1,.36,2.92c.13,1.78.21,3.57.32,5.35a1.71,1.71,0,0,0,.26.74c0-1.84,0-3.68,0-5.52,0-3.08-.1-6.17-.07-9.25S42.16,15.93,39.9,14l-2.8,2.8c.81,1,1.69,2,2.56,3a8,8,0,0,1,.57.83c.27.42.22.87-.23,1a1.11,1.11,0,0,1-1-.23c-.56-.6-1-1.34-1.52-2a26.38,26.38,0,0,0-1.92-1.92c-.63-.58-.65-.94-.06-1.52C36.6,15,37.65,14,38.88,12.75c-1.71-1.15-3.27-2.33-5-3.3A19.8,19.8,0,0,0,21.68,6.84c-.28,0-.59.19-.84.11a4.34,4.34,0,0,1-.95-.59c.24-.29.42-.75.72-.84a8.44,8.44,0,0,1,1.92-.23c6.74-.38,12.37,2.2,17.32,6.55.37.32.72.67,1.08,1l.18-.13c-.86-1.16-1.67-2.38-2.6-3.48a20.84,20.84,0,0,0-7.64-5.61,1.34,1.34,0,0,1-.68-.56.78.78,0,0,1,.18-.74,1.33,1.33,0,0,1,1-.08,20.45,20.45,0,0,1,5.56,3.36,22.28,22.28,0,0,1,8.31,17.66c0,5.21,0,10.43,0,15.64a21.71,21.71,0,0,1-4.58,13.49,21.91,21.91,0,0,1-15.06,8.84c-7.86,1-14.53-1.55-20-7.31-.6-.64-.47-1.15.35-1.47,8.51-3.39,13.64-9.7,15.93-18.46.32-1.2.41-1.28,1.55-.9A2.27,2.27,0,1,0,25,28.8a2.28,2.28,0,0,0-2.9,1.41c0,.12-.06.25-.1.38a.66.66,0,0,1-1,.47,1,1,0,0,1-.45-.84,3.69,3.69,0,0,1,4-3A3.77,3.77,0,0,1,28,30.52a3.84,3.84,0,0,1-4.62,4.14c-2.46,8.68-7.57,15.16-16,18.89a20.12,20.12,0,0,0,7,4.75A2.73,2.73,0,0,0,16,58.22a13.24,13.24,0,0,0,5.74-3.84c.64-.64,1.23-1.33,1.81-2,.35-.42.75-.61,1.2-.27s.31.81,0,1.21a21.39,21.39,0,0,1-7.22,6,13.57,13.57,0,0,0,5,.54A3.7,3.7,0,0,0,24,59.11a19.16,19.16,0,0,0,6.66-7.44q.18-.38.39-.76c.54-1,1-1.27,1.9-1.09s2,1.21,2,2a.91.91,0,0,1-.35.7c-.19.11-.52,0-.79,0-.06,0-.12-.1-.17-.16-1-1.19-1.06-1.2-1.75.23a20.23,20.23,0,0,1-5.47,6.68l-.63.55a21.68,21.68,0,0,0,14.54-9.39c-3.08-.51-4.54-2.65-5.77-5.08a11,11,0,0,0-1.26-2,1.34,1.34,0,0,0-2.38.16c-.38.58-.65,1.23-1,1.84-.75,1.36-1.5,2.71-2.28,4.05-.36.62-.81.67-1.41.24L23,47.21c-1.43,1.57-2.76,3.19-4.27,4.63C17.48,53,16,54,14.62,55.13c-.41.32-.88.44-1.23,0s0-.89.42-1.2A30.25,30.25,0,0,0,25.58,38.75a1.69,1.69,0,0,1,1.12-1.13,7.08,7.08,0,0,0,4.45-8.25A1,1,0,0,1,31.86,28c1.15-.44,2.28-1,3.48-1.47a10,10,0,0,0-2-3.39,11.76,11.76,0,0,0-11.48-3.92c-.57.11-1,0-1.13-.6s.36-.78.86-.88A13.48,13.48,0,0,1,37.55,29c.2,1.35.12,2.74.21,4.11a24.84,24.84,0,0,0,1.59,8.18,9.6,9.6,0,0,0,1.54,2.49A9.77,9.77,0,0,0,42.88,45.13ZM26.73,48l1.56-2.87a28.78,28.78,0,0,1,1.53-2.78,2.73,2.73,0,0,1,4.41-.33,12.4,12.4,0,0,1,1.39,2c.62,1,1.13,2,1.81,3a4.26,4.26,0,0,0,3.23,1.78.8.8,0,0,0,.64-.24c.39-.72.71-1.47,1.08-2.28a5.62,5.62,0,0,1-3.57-2.82,15.9,15.9,0,0,1-1.18-2.6,32.32,32.32,0,0,1-1.42-9.63c0-1.09-.17-2.18-.28-3.38l-3.21,1.37c.42,4.74-1.17,7.58-5.37,9.72a1,1,0,0,0-.41.4c-1,2.17-2,4.34-3.06,6.59Z"></path>
         </svg>
